<svg
  class="icon"
  viewBox="0 0 1024 1024"
  version="1.1"
  xmlns="http://www.w3.org/2000/svg"
  style="height: 48px; width: 48px"
>
    <path d="M796.444444 568.888889a227.555556 227.555556 0 0 1 227.555556 227.555555v170.666667a56.888889 56.888889 0 0 1-56.888889 56.888889h-170.666667a227.555556 227.555556 0 1 1 0-455.111111z" fill="#3369e7">
    </path>
    <path d="M512 0a512 512 0 0 1 0 1024H113.777778a113.777778 113.777778 0 0 1-113.777778-113.777778V512a512 512 0 0 1 512-512z" fill="#B4EBED">
    </path>
    <path d="M341.333333 512m-56.888889 0a56.888889 56.888889 0 1 0 113.777778 0 56.888889 56.888889 0 1 0-113.777778 0Z" fill="#FFFFFF">
    </path>
    <path d="M682.666667 512m-56.888889 0a56.888889 56.888889 0 1 0 113.777778 0 56.888889 56.888889 0 1 0-113.777778 0Z" fill="#FFFFFF">
    </path>
</svg>
