<?xml version="1.0" standalone="no"?><!DOCTYPE svg PUBLIC "-//W3C//DTD SVG 1.1//EN" "http://www.w3.org/Graphics/SVG/1.1/DTD/svg11.dtd"><svg t="1742995579543" class="svg-icon" viewBox="0 0 1024 1024" version="1.1" xmlns="http://www.w3.org/2000/svg" p-id="33949" xmlns:xlink="http://www.w3.org/1999/xlink" width="200" height="200"><path d="M923.2 352H100.8C62.4 352 32 321.6 32 283.2V132.8C32 94.4 62.4 64 100.8 64h824C961.6 64 992 94.4 992 132.8v152c0 36.8-30.4 67.2-68.8 67.2z" fill="#55C7F7" p-id="33950"></path><path d="M923.2 672H100.8C62.4 672 32 641.6 32 603.2V420.8C32 382.4 62.4 352 100.8 352h824c38.4 0 68.8 30.4 68.8 68.8v184c-1.6 36.8-32 67.2-70.4 67.2z" fill="#F95F5D" p-id="33951"></path><path d="M923.2 960H100.8C62.4 960 32 929.6 32 891.2v-152C32 702.4 62.4 672 100.8 672h824c38.4 0 68.8 30.4 68.8 68.8v152c-1.6 36.8-32 67.2-70.4 67.2z" fill="#7ECF3B" p-id="33952"></path><path d="M624 32v960H400V32z" fill="#FDAF42" p-id="33953"></path><path d="M632 616h-240c-22.4 0-40-17.6-40-40v-128c0-22.4 17.6-40 40-40h240c22.4 0 40 17.6 40 40v128c0 22.4-17.6 40-40 40z m-232-48h224v-112H400v112z" fill="#FFFFFF" p-id="33954"></path></svg>