<?xml version="1.0" standalone="no"?><!DOCTYPE svg PUBLIC "-//W3C//DTD SVG 1.1//EN" "http://www.w3.org/Graphics/SVG/1.1/DTD/svg11.dtd"><svg t="1742888981247" class="svg-icon" viewBox="0 0 1024 1024" version="1.1" xmlns="http://www.w3.org/2000/svg" p-id="10532" id="mx_n_1742888981248" xmlns:xlink="http://www.w3.org/1999/xlink" width="200" height="200"><path d="M945.587697 291.972171v653.744416c0 42.592457-35.23398 77.439766-78.306847 77.439766H156.812889C113.740022 1023.156353 78.506042 988.309044 78.506042 945.716587V78.916148C78.506042 36.323691 113.751739 1.476382 156.812889 1.476382h503.141706" fill="#409eff" p-id="10533" data-spm-anchor-id="a313x.search_index.0.i24.20d13a81QCpEmN" class=""></path><path d="M659.954595 1.476382L945.587697 291.983889H691.884291s-25.778103-9.830831-31.929696-39.335042z" fill="#f5f5f5" p-id="10534"></path><path d="M666.153057 358.268766l-266.53387 41.549616a5.143903 5.143903 0 0 0-2.343464 0.632735h-9.502746c-6.456243 0-11.881362 4.757232-11.881362 11.096302v284.379348a73.44416 73.44416 0 0 0-35.316002-8.881729c-39.053826 0-70.632003 29.480776-70.632003 65.945076s31.636763 65.945075 70.632003 65.945075 70.632003-29.480776 70.632003-65.945075c0-2.530941-0.339802-5.389967-0.339802-7.932626a10.05346 10.05346 0 0 0 0.339802-3.163676V510.781399l247.551813-40.893446v160.093739a73.39729 73.39729 0 0 0-35.339436-8.870011c-39.053826 0-70.632003 29.480776-70.632003 65.945075s31.636763 65.945075 70.632003 65.945075 70.632003-29.480776 70.632003-65.945075c0-2.530941-0.339802-5.389967-0.339803-7.920908a10.10033 10.10033 0 0 0 0.339803-3.175394V368.439399c0-5.389967-4.077627-9.830831-9.842549-10.779934a10.70963 10.70963 0 0 0-7.135848-1.26547l-6.11644 0.949103h-0.679605z m0 0" fill="#F5F5F5" p-id="10535"></path></svg>