<svg id="eLpfKCFis3W1" xmlns="http://www.w3.org/2000/svg" xmlns:xlink="http://www.w3.org/1999/xlink" class="svg-icon" viewBox="0 0 1024 1024" shape-rendering="geometricPrecision" text-rendering="geometricPrecision" project-id="3158866e09674fdba1f410069e2041ca" export-id="664c0c49075e4a0caa3d6954772a62f4" cached="false"><path d="M945.587697,291.972171v653.744416c0,42.592457-35.23398,77.439766-78.306847,77.439766h-710.467961c-43.072867,0-78.306847-34.847309-78.306847-77.439766v-866.800439c0-42.592457,35.245697-77.439766,78.306847-77.439766h503.141706" fill="#409eff"/><path d="M659.954595,1.476382L945.587697,291.983889h-253.703406c0,0-25.778103-9.830831-31.929696-39.335042v-251.172465Z" fill="#f5f5f5"/><path d="M254.91983,471.097609c65.115255-.000001,463.752463,0,463.752463,0c68.644911,0,68.644911,95.054852,0,95.054852s-398.637208,0-463.752463,0-65.115255-95.054866,0-95.054852Z" transform="translate(32.61514-32.932245)" fill="#fff" stroke="rgba(0,0,0,0)" stroke-width="2.048"/><path d="M254.91983,471.097609c65.115255-.000001,463.752463,0,463.752463,0c68.644911,0,68.644911,95.054852,0,95.054852s-398.637208,0-463.752463,0-65.115255-95.054866,0-95.054852Z" transform="translate(32.61514 300.088283)" fill="#fff" stroke="rgba(0,0,0,0)" stroke-width="2.048"/><path d="M254.91983,471.097609c65.115255-.000001,463.752463,0,463.752463,0c68.644911,0,68.644911,95.054852,0,95.054852s-398.637208,0-463.752463,0-65.115255-95.054866,0-95.054852Z" transform="translate(32.61514 133.578019)" fill="#fff" stroke="rgba(0,0,0,0)" stroke-width="2.048"/></svg>
