<svg id="ewFKyP0BN3z1" xmlns="http://www.w3.org/2000/svg" xmlns:xlink="http://www.w3.org/1999/xlink" class="svg-icon" viewBox="0 0 1024 1024" shape-rendering="geometricPrecision" text-rendering="geometricPrecision" project-id="ca2ae2b5ad724330858cac607fe23a4d" export-id="4a7dfe918060481cb0eb55d0ff4dfd93" cached="false" width="233.7890625" height="200"><path d="M128,384v-298.666667C128,38.205035,166.205035,0,213.333333,0L743.36,0L1024,282.453333v656.213334c0,22.631807-8.99045,44.336674-24.993555,60.339778s-37.707971,24.993555-60.339778,24.993555h-725.333334c-22.631807,0-44.336674-8.99045-60.339778-24.993555s-24.993555-37.707971-24.993555-60.339778L128,832m64,0v106.666667c0,5.657951,2.247612,11.084168,6.248388,15.084944s9.426993,6.248389,15.084945,6.248389h725.333334c5.657952,0,11.084168-2.247613,15.084944-6.248389s6.248389-9.426992,6.248389-15.084944v-629.845334l-10.090667-10.154666h-126.528c-54.150415,0-98.048-43.897585-98.048-98.048v-127.936L716.714667,64h-503.381334c-5.657952,0-11.084168,2.247613-15.084944,6.248389s-6.248389,9.426992-6.248389,15.084944L192,384" fill="#409eff"/><path d="M343.086401,539.533532h382.24693c60.764552,0,59.52709,87.859819,0,87.859819h-382.24693c-59.398186,0-61.87311-87.859819,0-87.859819Z" transform="translate(40.737834-148.495465)" fill="#409eff" stroke="#fff" stroke-width="2.048" stroke-opacity="0"/><path d="M343.086401,539.533532h382.24693c60.764552,0,59.52709,87.859819,0,87.859819h-382.24693c-59.398186,0-61.87311-87.859819,0-87.859819Z" transform="translate(43.212759 24.749249)" fill="#409eff" stroke="#fff" stroke-width="2.048" stroke-opacity="0"/><path d="M343.086401,539.533532h382.24693c60.764552,0,59.52709,87.859819,0,87.859819h-382.24693c-59.398186,0-61.87311-87.859819,0-87.859819Z" transform="translate(40.737834 194.281578)" fill="#409eff" stroke="#fff" stroke-width="2.048" stroke-opacity="0"/></svg>
