<?xml version="1.0" standalone="no"?><!DOCTYPE svg PUBLIC "-//W3C//DTD SVG 1.1//EN" "http://www.w3.org/Graphics/SVG/1.1/DTD/svg11.dtd"><svg t="1746604353367" class="svg-icon" viewBox="0 0 1024 1024" version="1.1" xmlns="http://www.w3.org/2000/svg" p-id="4613" xmlns:xlink="http://www.w3.org/1999/xlink" width="200" height="200"><path d="M933.686613 826.823111c0 33.28-26.908444 60.245333-60.131555 60.245333H151.350613a60.188444 60.188444 0 0 1-60.188444-60.245333H0.879502c-9.102222 93.809778 53.930667 150.641778 120.376889 150.641778h782.392889A120.433778 120.433778 0 0 0 1024.026169 856.974222v-180.679111h-90.339556v150.528zM978.91328 0H587.688391a45.169778 45.169778 0 0 0 0 90.282667h297.244445L446.490169 529.123556a45.169778 45.169778 0 0 0 63.829333 63.886222l423.367111-423.765334v267.434667a45.169778 45.169778 0 0 0 90.225778 0V45.169778a44.942222 44.942222 0 0 0-44.942222-45.169778z" fill="#000000" p-id="4614"></path><path d="M0.026169 102.4m42.666667 0l426.666666 0q42.666667 0 42.666667 42.666667l0 0q0 42.666667-42.666667 42.666666l-426.666666 0q-42.666667 0-42.666667-42.666666l0 0q0-42.666667 42.666667-42.666667Z" fill="#000000" p-id="4615"></path><path d="M0.026169 327.395556m42.666667 0l290.133333 0q42.666667 0 42.666667 42.666666l0 0q0 42.666667-42.666667 42.666667l-290.133333 0q-42.666667 0-42.666667-42.666667l0 0q0-42.666667 42.666667-42.666666Z" fill="#000000" p-id="4616"></path><path d="M0.026169 552.334222m42.666667 0l290.133333 0q42.666667 0 42.666667 42.666667l0 0q0 42.666667-42.666667 42.666667l-290.133333 0q-42.666667 0-42.666667-42.666667l0 0q0-42.666667 42.666667-42.666667Z" fill="#000000" p-id="4617"></path></svg>