<svg id="eyESAnYcIDM1" xmlns="http://www.w3.org/2000/svg" xmlns:xlink="http://www.w3.org/1999/xlink" class="svg-icon" viewBox="0 0 912 909" shape-rendering="geometricPrecision" text-rendering="geometricPrecision" project-id="7f1f8d1588574464a0c316c0c24bd3ff" export-id="1eaee1293a1049afa6b707d75c029d7e" cached="false"><path d="M504.641452,568.262962c0-28.460093-17.897584-37.848989-52.225737-37.848989h-28.166689v79.512218h29.340301c34.621556,0,51.052125-13.203136,51.052125-41.663229ZM262.583964,530.413973h-28.16669v79.512218h29.340302c34.621556,0,51.052125-13.203136,51.052125-41.663229s-17.897584-37.848989-52.225737-37.848989Z" transform="translate(-144.929354-57.190116)" fill="#409eff"/><path d="M804.417182,57.190116h-469.034062c-42.637326,0-76.742493,34.105167-76.742493,76.754229v264.356118h-76.754229c-19.904461,0-36.957044,17.052583-36.957044,36.957044v321.205886c0,22.756338,17.052583,39.808921,36.957044,39.808922h76.754229v93.806812c0,42.637326,34.105167,76.742493,76.742493,76.742493h645.275386c42.637326,0,76.742493-34.105167,76.742493-76.742493v-582.745335L804.417182,57.190116ZM266.985009,637.212671h-32.567735v81.859442h-34.03475v-215.94462h65.428873c48.118095,0,82.446248,16.430569,82.446248,65.135469c0,47.237886-34.328153,68.949709-81.272636,68.949709ZM997.71109,890.079127c0,11.372301-8.53216,19.892725-19.892725,19.892725h-642.435245c-11.372301,0-19.904461-8.520424-19.90446-19.892725v-93.806812h568.532893c19.904461,0,36.957044-17.052583,36.957044-36.957044v-324.057764c0-19.904461-17.052583-36.957044-36.957044-36.957044h-568.532893v-264.367854c0-11.372301,8.53216-19.880988,19.90446-19.880988h446.289461l8.532159,8.532159v113.699537c0,48.329345,39.808921,88.114794,88.114794,88.114794h113.699537l5.680283,8.53216v557.148856h.011736ZM390.214276,719.072113v-215.94462h65.428873c48.118095,0,82.446248,16.430569,82.446247,65.135469c0,47.237886-34.328153,68.949709-81.272635,68.949709h-32.567735v81.859442h-34.03475Zm163.42548-187.484528v-28.460092h161.078256v28.460092h-63.668454v187.484528h-34.03475v-187.484528h-63.375052Zm171.934168-28.460092h37.848989l26.112868,50.465319c5.281254,9.975703,9.975703,19.658002,16.430569,32.567734h1.467015c5.574657-12.909733,9.6823-22.592032,14.670151-32.567734l25.526063-50.465319h35.795168L825.330949,609.339385l62.20144,109.732728h-37.848989l-28.460093-53.692752c-5.574657-10.855912-11.149315-22.005226-17.897584-35.208362h-1.173612c-6.161463,13.203136-11.442718,24.35245-16.723972,35.208362l-27.579883,53.692752h-36.088571l61.908036-111.493146-58.093797-104.451474Z" transform="translate(-144.929354-57.190116)" fill="#409eff"/></svg>
