<?xml version="1.0" standalone="no"?><!DOCTYPE svg PUBLIC "-//W3C//DTD SVG 1.1//EN" "http://www.w3.org/Graphics/SVG/1.1/DTD/svg11.dtd"><svg t="1745740304487" class="svg-icon" viewBox="0 0 1024 1024" version="1.1" xmlns="http://www.w3.org/2000/svg" p-id="16699" xmlns:xlink="http://www.w3.org/1999/xlink" width="200" height="200"><path d="M309.44 997.376h-92.8l1.6-131.648-83.456 1.472-5.504-1.28a186.752 186.752 0 0 1-82.816-42.88l-4.48-4.608a190.4 190.4 0 0 1-41.088-84.928L0 724.224l1.024-555.2c6.464-30.848 20.608-60.032 40.768-84.352l4.48-4.672A181.824 181.824 0 0 1 129.728 36.864l9.92-1.088 756.608 1.536c29.184 7.68 56.896 22.016 80.064 41.408l4.864 4.736c21.888 24.576 36.48 54.656 42.112 87.104l0.704 8.064-0.96 554.816c-6.4 30.976-20.544 60.16-40.832 84.544l-4.544 4.736a184.256 184.256 0 0 1-83.136 43.008l-10.368 1.088-385.152-1.792-189.568 132.352z m3.072-226.432l-1.344 111.68 158.72-110.848 408.96 1.92a92.16 92.16 0 0 0 33.92-17.92c8.576-10.944 14.784-23.68 18.176-37.12V183.104a83.712 83.712 0 0 0-17.088-35.2 115.648 115.648 0 0 0-35.968-19.008H145.216a88.832 88.832 0 0 0-33.856 17.792 101.952 101.952 0 0 0-18.24 37.184v535.168c3.328 13.376 9.536 25.984 17.984 36.8 9.92 8.32 21.504 14.4 33.984 17.984l167.424-2.88z" fill="#000000" p-id="16700" data-spm-anchor-id="a313x.search_index.0.i23.4a633a81AeDDIC" class=""></path><path d="M353.088 262.4h70.4v66.432s-106.368 59.2-105.92 132.416H423.68v165.504H211.84V428.16A296.768 296.768 0 0 1 353.088 262.4zM677.44 262.4h70.4v66.432s-106.368 59.2-105.92 132.416h105.92v165.504H536.256V428.16a296.832 296.832 0 0 1 141.184-165.76z" fill="#000000" p-id="16701" data-spm-anchor-id="a313x.search_index.0.i24.4a633a81AeDDIC" class="selected"></path></svg>