<?xml version="1.0" standalone="no"?><!DOCTYPE svg PUBLIC "-//W3C//DTD SVG 1.1//EN" "http://www.w3.org/Graphics/SVG/1.1/DTD/svg11.dtd"><svg t="1744876866180" class="svg-icon" viewBox="0 0 1024 1024" version="1.1" xmlns="http://www.w3.org/2000/svg" p-id="13144" xmlns:xlink="http://www.w3.org/1999/xlink" width="200" height="200"><path d="M876.416 272.137H707.763L840.277 91.69c18.065-24.047 12.05-60.135-12.049-81.186C804.13-7.552 768-1.545 746.914 22.519L566.212 269.133h-72.286l-271.06-168.431c-27.103-15.027-63.241-9.02-78.303 18.048-12.049 18.048-12.049 33.084-9.037 48.12 3.013 15.035 12.05 27.076 24.09 36.087l114.44 69.171H147.585C66.261 272.137 0 338.304 0 419.498v457.114C0 957.815 66.261 1024 147.584 1024h728.832C957.73 1024 1024 957.815 1024 876.62V419.5c0-81.195-66.27-147.362-147.584-147.362zM150.579 572.894l-3.004-15.044c-3.02-21.06 9.037-42.112 30.115-45.133l162.636-30.063c21.078-3.004 42.155 9.037 45.167 30.063l3.021 15.053c3.012 21.051-9.037 42.103-30.114 45.124l-162.637 30.054c-21.077 3.021-42.163-9.002-45.184-30.054z m472.858 228.548c-15.07 9.028-30.114 15.053-54.221 15.053-18.065 0-36.13-9.028-51.183-27.076-3.02-3.021-6.033-3.021-9.045 0-36.139 36.087-93.372 33.083-126.498-6.016-15.053-21.06-24.09-42.104-24.09-69.163 0-15.053 12.05-24.073 24.09-24.073 12.049 0 24.09 9.029 24.09 24.073 0 12.023 3.02 27.06 12.048 36.079 12.05 18.03 33.135 21.052 48.188 6.024 12.04-9.028 18.074-21.051 18.074-36.096v-6.007c0-27.076 51.2-27.076 51.2 0 0 12.023 3.003 24.047 12.032 36.079 18.082 21.052 42.163 21.052 57.233-3.004 6.024-9.02 9.045-21.052 9.045-33.075 0-12.04 9.037-21.077 18.065-24.073s21.086 3.004 27.102 12.032c3.03 3.004 3.03 6.016 3.03 12.041 3.003 36.079-9.046 66.15-39.16 87.202zM876.416 557.85l-3.02 15.044c-3.005 21.052-24.082 36.079-45.168 30.054l-159.616-30.054c-21.086-3.02-36.147-24.073-30.114-45.124l3.004-15.053c3.02-21.035 24.098-36.088 45.184-30.063l159.616 30.063c21.077 3.02 33.135 24.072 30.114 45.133z m0 0" p-id="13145"></path></svg>