<svg id="eshlMQ93yGv1" xmlns="http://www.w3.org/2000/svg" xmlns:xlink="http://www.w3.org/1999/xlink" class="svg-icon" viewBox="0 0 1024 1024" shape-rendering="geometricPrecision" text-rendering="geometricPrecision" project-id="ca2ae2b5ad724330858cac607fe23a4d" export-id="e0f49f6d3dda4a5895f5d9396d7babd7" cached="false" width="233.7890625" height="200"><path d="M743.36,0L1024,282.453333v656.213334c0,22.631807-8.99045,44.336674-24.993555,60.339778s-37.707971,24.993555-60.339778,24.993555h-725.333334c-22.631807,0-44.336674-8.99045-60.339778-24.993555s-24.993555-37.707971-24.993555-60.339778L128,832h-85.333333C19.102517,832,0,812.897483,0,789.333333v-362.666666c0-11.315904,4.495225-22.168337,12.496777-30.16989s18.853986-12.496777,30.16989-12.496777L128,384v-298.666667C128,38.205035,166.205035,0,213.333333,0L743.36,0ZM716.714667,64h-503.381334c-5.657952,0-11.084168,2.247613-15.084944,6.248389s-6.248389,9.426992-6.248389,15.084944L192,384h640c23.56415,0,42.666667,19.102517,42.666667,42.666667v362.666666C874.666667,812.897483,855.56415,832,832,832h-640v106.666667c0,5.657951,2.247612,11.084168,6.248388,15.084944s9.426993,6.248389,15.084945,6.248389h725.333334c5.657952,0,11.084168-2.247613,15.084944-6.248389s6.248389-9.426992,6.248389-15.084944v-629.845334l-10.090667-10.154666h-126.528c-54.150415,0-98.048-43.897585-98.048-98.048v-127.936L716.714667,64Z" fill="#409EFF"/><path d="M40.917333,472.490667h51.306667l60.288,96.768l60.288-96.768h51.306667l-86.485334,132.48l92.245334,141.696h-51.306667l-66.026667-105.984-66.048,105.984h-51.285333l91.498667-141.696-85.76-132.48h-.021334Zm228.928,0h44.288v235.776h83.712v38.4h-128v-274.176Zm222.869334-5.376c27.285333,0,48.725333,6.528,64,19.968c16.234667,14.208,25.664,36.48,27.946666,66.432h-37.696c-3.242667-16.896-9.429333-29.184-17.877333-36.48-8.448-7.68-21.44-11.136-38.336-11.136-14.613333,0-25.664,2.304-33.450667,7.296-9.749333,5.76-14.293333,15.36-14.293333,28.416c0,11.52,5.184,21.12,16.234667,28.032c4.885333,3.072,18.197333,8.832,39.637333,16.896c31.509333,11.52,51.648,20.736,60.757333,26.88c20.138667,14.208,30.208,33.792,30.208,59.136c0,24.576-8.106667,44.16-24.362666,58.368-16.256,13.824-39.317333,21.12-68.885334,21.12-28.586667,0-50.986667-6.528-66.922666-19.584-19.477333-16.128-30.208-41.472-31.829334-76.416h37.674667c2.602667,20.736,8.789333,35.712,18.858667,44.544c9.088,7.68,23.061333,11.904,42.24,11.904c16.874667,0,30.506667-3.456,40.277333-9.984c9.749333-6.912,14.933333-15.744,14.933333-27.264c0-14.592-7.466667-26.112-21.76-34.56-4.544-2.688-19.498667-8.832-45.162666-18.048-28.586667-10.752-46.442667-18.432-53.269334-23.04-17.877333-12.672-26.645333-31.104-26.645333-55.296s8.448-43.392,25.984-57.216c16.256-13.44,36.714667-19.968,61.738667-19.968Zm102.890666,5.376h-.021333" transform="translate(122.508761-2.474925)" fill="#fff"/></svg>
